<?xml version="1.0" standalone="no"?>
<!DOCTYPE svg PUBLIC "-//W3C//DTD SVG 20010904//EN"
 "http://www.w3.org/TR/2001/REC-SVG-20010904/DTD/svg10.dtd">
<svg version="1.0" xmlns="http://www.w3.org/2000/svg"
 width="512.000000pt" height="512.000000pt" viewBox="0 0 512.000000 512.000000"
 preserveAspectRatio="xMidYMid meet">
<metadata>
Created by potrace 1.16, written by Peter Selinger 2001-2019
</metadata>
<g transform="translate(0.000000,512.000000) scale(0.100000,-0.100000)"
fill="#000000" stroke="none">
<path d="M2285 4581 c-28 -4 13 -6 95 -3 151 5 346 -9 465 -34 315 -65 636
-250 898 -517 71 -73 110 -106 97 -85 -29 49 -199 213 -298 286 -100 74 -234
157 -332 207 -98 49 -284 110 -400 130 -104 18 -442 28 -525 16z"/>
<path d="M2193 4563 c9 -2 23 -2 30 0 6 3 -1 5 -18 5 -16 0 -22 -2 -12 -5z"/>
<path d="M2138 4553 c6 -2 18 -2 25 0 6 3 1 5 -13 5 -14 0 -19 -2 -12 -5z"/>
<path d="M2382 4533 c-13 -3 -21 -10 -19 -16 2 -8 56 -14 168 -18 233 -9 428
-57 644 -158 263 -123 636 -421 791 -631 55 -75 76 -92 88 -72 5 8 -90 140
-147 202 -17 19 -31 38 -32 43 0 4 -4 7 -8 6 -5 0 -48 38 -97 85 -230 218
-511 393 -774 481 -175 59 -499 100 -614 78z"/>
<path d="M1697 4401 c-97 -44 -251 -131 -243 -138 3 -3 44 17 93 45 48 27 122
64 163 82 73 31 105 50 85 50 -6 0 -50 -18 -98 -39z"/>
<path d="M2700 4415 c157 -23 262 -55 403 -119 74 -33 65 -15 -11 23 -112 56
-329 112 -427 110 -44 -1 -40 -3 35 -14z"/>
<path d="M2147 4389 c-38 -5 -92 -16 -120 -24 -48 -14 -49 -14 -12 -10 22 3
88 10 148 17 59 7 107 16 107 20 0 9 -30 9 -123 -3z"/>
<path d="M2458 4304 c-33 -17 -58 -62 -58 -102 0 -15 15 -53 33 -83 17 -30 38
-67 46 -84 14 -27 15 -28 18 -8 3 11 -12 53 -31 92 -20 39 -36 82 -36 96 0 36
42 75 80 75 19 0 40 -9 55 -25 32 -31 33 -96 5 -213 -23 -95 -24 -102 -11
-102 27 0 72 207 60 275 -14 78 -93 117 -161 79z"/>
<path d="M2287 4286 c-7 -16 28 -71 45 -71 14 0 13 21 -2 61 -10 26 -35 32
-43 10z"/>
<path d="M2873 4251 c-22 -20 -58 -50 -79 -68 -23 -19 -33 -32 -24 -32 23 -1
170 96 170 113 0 28 -27 23 -67 -13z"/>
<path d="M1771 4234 c-177 -58 -379 -176 -533 -309 -78 -68 -96 -91 -80 -107
6 -6 31 9 63 38 180 160 412 292 622 354 58 17 77 27 72 37 -3 8 -5 17 -5 19
0 10 -43 0 -139 -32z"/>
<path d="M2020 4260 l-45 -7 52 -1 c28 -1 55 3 58 8 7 11 4 11 -65 0z"/>
<path d="M1353 4168 c-51 -34 -93 -66 -93 -70 0 -5 6 -5 13 -1 130 85 199 133
187 133 -8 0 -57 -28 -107 -62z"/>
<path d="M1985 4190 c-62 -10 -98 -24 -155 -59 -25 -16 -63 -34 -85 -41 -66
-21 -144 -70 -204 -128 -41 -41 -69 -58 -104 -68 -59 -15 -107 -47 -136 -89
-16 -23 -35 -36 -69 -46 -36 -10 -62 -28 -112 -78 -69 -69 -110 -141 -134
-233 -8 -30 -36 -88 -64 -130 -97 -150 -134 -293 -131 -508 1 -114 -2 -137
-35 -265 -40 -154 -47 -257 -22 -322 8 -21 17 -83 20 -138 7 -131 33 -222 111
-380 77 -156 161 -266 275 -360 44 -37 110 -102 147 -144 36 -42 84 -91 107
-110 158 -130 422 -130 579 -1 24 21 51 60 76 113 72 149 71 150 68 -80 -2
-191 -1 -203 19 -230 12 -15 31 -30 44 -31 20 -3 22 -1 15 25 -4 15 -9 127
-11 248 -3 218 -6 264 -19 297 -6 14 9 25 77 56 130 60 181 125 224 282 18 67
24 192 12 245 -5 20 1 12 18 -21 32 -67 47 -154 41 -229 -3 -33 -25 -136 -50
-230 -60 -221 -87 -371 -94 -520 -5 -107 -4 -123 12 -138 10 -10 25 -17 34
-15 13 3 16 19 18 99 3 185 36 354 132 687 l58 203 6 -63 c15 -159 59 -214
240 -303 73 -35 210 -117 307 -181 197 -132 229 -149 319 -163 144 -23 293 28
417 142 81 76 130 152 155 242 11 41 31 81 53 108 48 58 86 144 86 192 0 22 8
63 19 90 10 28 22 79 26 115 6 49 15 76 40 112 49 70 60 112 59 213 0 70 -5
102 -24 145 -18 43 -23 78 -26 160 -7 249 -10 272 -43 361 -31 83 -134 256
-206 344 -18 22 -49 74 -70 115 -23 46 -60 98 -96 135 -33 33 -76 86 -97 117
-53 81 -307 336 -375 377 -108 64 -173 84 -283 89 -122 5 -195 -11 -310 -69
-132 -66 -189 -135 -220 -266 -15 -67 -87 -212 -97 -196 -3 4 -12 55 -21 113
-21 132 -49 216 -96 277 -37 50 -119 106 -180 123 -50 15 -186 20 -245 10z
m267 -82 c62 -29 120 -85 149 -145 11 -23 34 -118 51 -210 25 -137 30 -181 24
-235 -4 -38 -11 -68 -15 -68 -4 0 -12 15 -19 33 -19 52 -70 127 -87 127 -22 0
-19 -18 9 -51 66 -78 85 -205 69 -463 l-8 -130 -44 60 c-24 32 -58 75 -76 94
-26 27 -34 47 -39 90 -3 30 -16 76 -29 103 -23 45 -24 50 -10 90 22 62 14 217
-14 279 l-22 47 21 49 c49 116 -40 225 -157 192 -48 -14 -65 -8 -65 20 0 35
47 55 125 55 83 0 136 -22 164 -69 29 -46 44 -148 36 -238 -4 -54 -3 -78 5
-78 52 0 35 262 -22 343 -60 83 -260 103 -317 30 -41 -51 -16 -121 38 -109 89
22 109 20 142 -13 28 -29 31 -37 26 -76 -2 -25 -10 -52 -17 -60 -10 -12 -17
-11 -48 10 -21 13 -72 33 -114 44 -42 10 -90 28 -107 40 -17 12 -51 31 -76 42
-25 11 -45 24 -45 30 0 45 61 128 115 157 89 47 264 52 357 10z m1092 -16 c82
-39 101 -54 246 -200 124 -124 164 -171 190 -222 44 -86 52 -176 22 -242 -25
-58 -49 -73 -156 -102 -47 -12 -108 -37 -136 -54 l-50 -31 0 51 c0 79 -19 128
-72 181 -26 26 -54 47 -63 47 -30 0 -14 18 34 39 27 11 63 21 80 21 17 0 49 7
71 16 37 15 42 15 66 0 32 -22 64 -74 64 -106 0 -31 -32 -85 -59 -100 -25 -13
-28 -30 -6 -30 25 0 65 30 81 61 36 70 7 159 -69 208 -21 14 -37 32 -37 43 0
25 -18 58 -31 58 -7 0 -9 -12 -5 -34 9 -46 -12 -66 -70 -66 -42 0 -44 1 -38
24 8 31 -11 97 -38 131 -26 33 -91 64 -135 65 -30 0 -31 1 -20 29 9 24 7 34
-7 55 -24 37 -60 49 -131 43 -85 -6 -138 -35 -164 -91 -17 -35 -28 -45 -54
-50 -46 -9 -94 -41 -117 -78 -31 -52 -23 -68 13 -26 33 39 105 77 145 78 16 0
22 6 22 23 0 57 77 106 168 107 61 0 92 -13 92 -39 0 -24 -14 -35 -76 -59 -71
-27 -116 -63 -147 -120 -30 -56 -49 -128 -40 -160 9 -38 25 -20 42 51 30 116
107 184 220 194 116 11 181 -37 181 -132 l0 -54 -54 -35 c-81 -52 -125 -131
-112 -199 7 -36 51 -107 66 -107 22 0 22 32 -1 56 -16 17 -24 37 -24 63 0 41
27 91 49 91 26 0 93 -58 111 -96 29 -60 32 -151 6 -209 l-21 -49 -38 36 c-20
20 -52 43 -71 53 -46 23 -156 23 -199 1 -54 -28 -94 -113 -77 -165 9 -30 25
-26 25 8 0 75 37 117 113 127 95 13 184 -41 207 -127 27 -96 -26 -262 -108
-343 -33 -31 -54 -41 -118 -56 -44 -10 -87 -22 -97 -25 -16 -7 -16 -4 -6 21 6
16 15 62 20 102 4 41 16 88 26 105 24 41 76 71 108 63 56 -14 56 -83 0 -137
-39 -39 -36 -55 6 -33 56 29 86 113 59 165 -17 30 -67 51 -103 43 -50 -10 -83
-40 -111 -97 -14 -28 -25 -47 -26 -40 0 19 -59 82 -91 99 -15 7 -48 14 -72 14
-35 0 -49 -6 -73 -31 -29 -30 -29 -31 -29 -152 -1 -139 -13 -178 -87 -275
l-41 -55 -40 104 c-61 162 -70 232 -64 524 7 318 27 419 131 636 24 52 49 118
55 147 28 133 108 209 286 269 59 20 87 23 180 21 107 -3 113 -4 199 -46z
m-1590 -101 c-28 -70 -21 -79 105 -143 63 -32 124 -58 135 -58 37 0 123 -47
148 -81 46 -61 66 -168 48 -254 -6 -30 -13 -55 -16 -55 -3 0 -26 11 -52 24
-77 39 -182 46 -182 13 0 -8 28 -17 71 -24 93 -14 144 -49 181 -123 41 -80 46
-137 18 -194 -12 -25 -27 -46 -34 -46 -20 0 -52 40 -95 120 -45 83 -100 150
-125 150 -23 0 -21 -6 23 -58 21 -26 55 -80 76 -120 21 -40 53 -86 72 -103 32
-28 34 -32 24 -61 -9 -26 -6 -40 19 -99 25 -56 31 -86 34 -156 5 -107 3 -102
21 -79 25 33 19 159 -10 231 -14 33 -25 69 -25 80 0 12 16 45 35 75 19 29 37
58 39 64 6 14 65 -52 117 -131 36 -55 42 -73 53 -160 7 -54 12 -99 11 -101 -2
-2 -16 13 -32 34 -63 82 -72 90 -82 74 -7 -10 -4 -22 10 -40 59 -76 145 -211
171 -267 37 -82 56 -167 71 -323 10 -100 16 -125 28 -128 12 -2 20 13 33 64
29 113 110 253 210 361 115 125 274 168 474 128 42 -9 102 -28 132 -43 53 -26
55 -29 62 -75 9 -62 30 -94 71 -105 43 -11 48 -52 13 -120 -66 -129 -233 -197
-353 -143 -41 19 -133 96 -133 111 0 5 15 26 34 49 19 22 50 70 70 105 20 36
46 72 59 81 30 21 96 19 136 -6 35 -21 47 -20 38 5 -19 48 -145 69 -199 34
-14 -9 -50 -54 -80 -100 -90 -137 -180 -205 -341 -258 -103 -33 -144 -70 -198
-176 l-47 -91 -11 55 c-13 66 -69 183 -112 235 -40 49 -96 86 -199 132 -207
92 -312 208 -342 375 -8 47 -8 79 1 125 19 107 15 165 -19 232 -44 88 -164
213 -205 213 -19 0 5 -39 70 -115 85 -99 115 -155 115 -211 0 -39 -14 -111
-23 -120 -2 -3 -30 5 -60 16 -72 27 -140 93 -175 168 -23 51 -27 72 -30 192
-4 155 9 234 58 329 17 34 26 63 20 66 -8 5 -65 -62 -77 -92 -7 -17 -23 -16
-23 1 0 7 -18 34 -41 59 -44 50 -107 77 -181 77 -32 0 -39 4 -44 26 -8 33 1
90 20 119 23 35 78 74 115 81 31 7 33 6 22 -14 -14 -27 -14 -84 1 -116 14 -33
36 -39 133 -41 116 -2 177 -41 191 -124 9 -55 14 -71 25 -71 15 0 10 89 -7
123 -42 83 -89 109 -214 116 l-95 6 -3 43 c-6 76 75 179 188 241 75 42 84 40
64 -8z m-491 -300 c-2 -10 0 -34 5 -53 9 -35 9 -36 -33 -56 -24 -11 -56 -38
-72 -58 -24 -32 -28 -46 -28 -103 0 -54 3 -66 17 -69 14 -3 16 2 11 32 -8 48
2 80 37 119 37 43 97 61 187 55 81 -4 123 -28 153 -88 21 -41 27 -124 11 -149
-7 -11 -16 -4 -38 32 -15 25 -31 47 -35 47 -20 0 -5 -53 25 -92 33 -42 34 -49
40 -154 3 -60 13 -134 22 -164 l17 -55 -38 -33 c-103 -89 -263 -73 -319 33
-11 19 -25 34 -31 33 -5 -2 -48 -45 -93 -95 -95 -107 -112 -113 -161 -57 -107
122 -89 293 51 494 24 35 42 75 48 107 19 100 87 208 165 264 45 34 66 37 59
10z m2679 -220 c17 -36 59 -104 93 -151 134 -184 176 -262 206 -377 15 -61 17
-83 8 -117 -8 -33 -7 -47 5 -71 21 -39 20 -117 0 -158 -33 -65 -107 -127 -153
-127 -27 0 -75 103 -91 192 -12 65 -32 109 -45 97 -3 -4 -1 -46 5 -95 8 -74
18 -105 56 -182 42 -83 46 -97 42 -145 -3 -28 -9 -60 -13 -69 -5 -13 -3 -18 7
-18 23 0 38 45 38 110 0 47 3 60 15 60 26 0 88 36 119 69 17 17 33 31 37 31
13 0 40 -84 46 -145 8 -84 -16 -164 -66 -218 -33 -37 -37 -47 -33 -83 8 -78
-13 -122 -94 -201 -139 -136 -306 -193 -422 -143 -72 31 -89 53 -25 34 120
-37 258 37 288 154 17 64 2 142 -27 142 -7 0 -8 -16 -4 -45 23 -151 -142 -267
-277 -195 -34 18 -40 19 -65 6 -15 -8 -44 -33 -66 -56 -71 -77 -181 -107 -277
-75 -73 25 -149 101 -174 175 -23 70 -28 307 -7 315 8 3 37 -16 65 -41 76 -68
136 -94 223 -94 61 0 81 5 138 33 54 28 68 31 77 20 7 -7 36 -20 65 -29 78
-22 152 2 204 69 l21 27 42 -22 c32 -17 60 -22 113 -23 65 0 76 3 115 31 75
54 109 150 77 219 -18 40 -27 29 -22 -27 8 -88 -49 -162 -136 -178 -42 -8
-104 3 -127 22 -9 7 -7 17 9 39 37 50 35 189 -2 189 -6 0 -8 -16 -4 -38 6 -41
-8 -107 -29 -137 -13 -17 -18 -17 -46 -6 -17 8 -44 29 -61 47 -16 19 -34 34
-39 34 -20 0 0 -45 36 -82 33 -34 35 -40 24 -60 -33 -61 -142 -89 -191 -50
l-24 20 28 40 c30 43 56 119 56 162 0 21 7 31 30 40 103 43 154 221 102 357
l-20 52 32 34 c34 36 56 94 56 146 0 23 8 39 26 54 14 12 44 37 65 56 l39 33
34 -26 c92 -70 122 -185 69 -262 -39 -58 -65 -122 -58 -144 9 -29 22 -24 30
10 4 17 25 58 48 93 38 57 42 67 41 122 -2 94 -49 175 -130 225 -30 19 -34 27
-34 63 0 23 -9 60 -20 82 -42 87 -78 102 -43 18 46 -110 35 -171 -38 -212 -49
-28 -65 -53 -73 -114 -11 -86 -42 -124 -124 -152 -48 -17 -48 -39 0 -43 34 -3
38 -7 55 -50 25 -66 23 -156 -6 -215 -27 -55 -67 -87 -120 -94 -32 -4 -41 -1
-59 22 -32 41 -29 63 12 70 89 17 125 77 91 149 -20 42 -51 64 -67 48 -7 -7
-2 -18 16 -34 19 -16 27 -33 28 -57 2 -67 -64 -80 -149 -29 l-52 32 55 58 c60
63 96 134 114 224 14 69 0 144 -25 144 -12 0 -15 -15 -15 -65 0 -113 -55 -228
-143 -298 -31 -25 -46 -31 -86 -30 -26 0 -57 4 -69 7 -20 7 -19 9 18 68 61 94
82 159 86 266 3 87 6 97 36 138 40 55 129 116 194 133 27 7 74 21 103 31 42
15 58 16 69 8 20 -17 42 -64 42 -91 0 -21 -6 -26 -37 -32 -52 -9 -117 -39
-142 -64 -33 -33 -15 -44 27 -16 20 13 60 29 87 36 66 15 95 34 95 62 -1 29
-32 98 -53 116 -15 12 -15 16 8 42 30 37 45 88 45 158 0 54 0 54 20 36 11 -10
35 -48 52 -84z m-1036 -593 c93 -82 86 -212 -17 -292 -61 -47 -141 -145 -207
-253 l-50 -82 -6 37 c-13 81 -8 106 35 163 23 30 55 83 73 119 29 60 31 73 32
175 2 137 1 130 20 149 27 27 79 20 120 -16z m-1688 -11 l31 -32 -25 -80 c-35
-109 -44 -126 -83 -152 -37 -25 -109 -31 -158 -12 -80 30 -133 125 -133 238
l0 56 31 -53 c46 -82 118 -113 172 -77 12 8 45 44 72 80 28 35 52 65 56 65 3
0 19 -15 37 -33z m450 -28 l50 -46 -76 -11 c-138 -22 -222 -82 -222 -159 0
-33 33 -83 56 -83 19 0 18 9 -3 32 -9 11 -17 35 -17 55 0 29 7 42 34 65 48 40
88 50 217 55 110 5 112 5 137 -20 18 -18 26 -37 26 -60 0 -50 26 -129 58 -173
44 -61 44 -62 4 -43 -118 58 -252 61 -358 9 -69 -34 -90 -36 -138 -16 -54 22
-79 63 -73 119 5 53 -8 70 -30 41 -21 -28 -12 -103 17 -142 13 -18 46 -43 73
-56 l49 -23 -54 -42 c-104 -84 -191 -109 -257 -74 -56 29 -76 65 -74 132 1 67
19 108 65 146 l33 28 12 -32 c7 -17 20 -31 27 -31 12 0 15 16 15 73 0 77 14
153 38 200 12 23 17 26 41 20 84 -24 210 6 263 63 12 13 26 23 29 22 4 -2 30
-24 58 -49z m-685 -304 c30 -9 66 -13 80 -9 l26 6 -20 -38 c-23 -46 -26 -139
-5 -187 7 -18 33 -49 57 -69 l43 -36 -57 -7 c-80 -10 -137 9 -159 55 -22 42
-23 120 -4 183 12 41 12 47 0 47 -27 0 -48 -70 -49 -160 -1 -71 -5 -92 -24
-123 -20 -32 -25 -36 -39 -25 -52 44 -66 173 -33 306 11 43 23 98 26 123 l7
46 48 -48 c35 -35 62 -52 103 -64z m848 -110 c24 -9 88 -41 143 -72 54 -30
160 -87 235 -125 75 -38 146 -80 158 -94 13 -13 32 -57 44 -96 35 -116 13
-266 -56 -384 -34 -57 -65 -79 -225 -157 -74 -37 -184 -96 -245 -132 -131 -78
-196 -100 -274 -92 -97 10 -182 94 -217 214 -30 103 6 177 111 225 74 33 213
33 272 -1 50 -29 66 -22 33 14 -39 42 -99 58 -192 53 -138 -8 -237 -68 -268
-163 -30 -92 12 -228 97 -313 105 -104 248 -109 413 -13 116 68 237 131 249
131 7 0 -4 -19 -24 -42 -20 -24 -54 -80 -77 -126 -73 -149 -156 -197 -333
-197 -149 1 -186 21 -345 183 -69 70 -153 151 -187 179 -118 101 -222 270
-288 467 -22 65 -38 135 -41 179 l-6 72 25 -52 c17 -33 41 -63 69 -83 49 -35
56 -49 57 -103 3 -131 90 -236 197 -237 l32 0 4 -92 c5 -122 30 -169 154 -288
124 -118 179 -145 294 -145 107 1 178 23 220 71 16 19 30 44 30 55 0 23 -6 20
-61 -23 -43 -34 -163 -62 -223 -52 -83 13 -131 43 -225 138 -117 120 -135 158
-135 286 0 156 44 257 139 321 60 41 110 53 216 51 79 -2 108 2 167 23 160 56
292 21 379 -102 48 -67 61 -137 39 -214 -9 -34 -14 -64 -11 -68 11 -10 44 39
56 82 32 121 -52 281 -183 347 -53 26 -72 30 -140 30 -56 0 -95 -6 -136 -22
-43 -16 -89 -23 -192 -28 -120 -5 -141 -9 -187 -33 -29 -15 -67 -40 -86 -56
-39 -35 -85 -116 -102 -180 l-12 -46 -44 1 c-86 1 -133 63 -145 190 -7 79 -12
88 -71 127 -53 34 -61 62 -34 116 12 22 25 41 29 41 4 0 25 -9 47 -20 47 -24
122 -26 190 -5 27 8 51 13 53 11 2 -2 -11 -14 -28 -26 -47 -33 -108 -116 -121
-163 -23 -87 25 -157 108 -157 56 0 54 22 -2 31 -49 8 -75 39 -75 89 0 67 76
152 237 261 39 26 102 75 140 107 90 77 122 98 163 110 53 15 143 14 191 -3z
m1176 -317 c4 -7 8 -58 8 -113 1 -120 24 -188 86 -258 115 -131 319 -138 450
-15 l37 34 28 -24 c82 -66 172 -86 269 -57 81 23 164 66 229 120 51 41 56 43
56 23 -1 -34 -33 -99 -70 -142 -41 -46 -104 -79 -203 -104 -69 -18 -137 -53
-137 -71 0 -19 -91 -97 -140 -120 -44 -20 -70 -25 -130 -25 -84 0 -142 22
-255 93 -34 22 -106 61 -161 89 -159 80 -193 133 -204 317 -5 94 -10 119 -33
163 -20 38 -24 54 -15 57 126 47 171 54 185 33z m-217 -110 c15 -25 20 -51 20
-108 1 -153 47 -276 127 -337 31 -24 189 -111 377 -207 77 -40 82 -41 180 -41
91 0 107 3 159 29 59 29 112 74 157 134 21 28 40 37 125 62 55 15 102 27 104
25 2 -2 -4 -23 -14 -47 -96 -243 -380 -380 -588 -285 -29 13 -135 79 -237 147
-102 67 -231 145 -287 171 -161 77 -195 127 -209 310 -5 74 -3 93 14 133 25
55 45 58 72 14z"/>
<path d="M3148 4074 c-17 -17 -6 -24 40 -24 26 -1 65 -7 87 -15 48 -18 45 -17
45 -4 0 23 -154 62 -172 43z"/>
<path d="M2882 4009 c-63 -31 -102 -76 -102 -118 0 -33 13 -25 36 21 16 35 31
48 81 73 34 16 62 36 62 43 1 18 -9 15 -77 -19z"/>
<path d="M3390 3996 c0 -2 7 -20 15 -39 20 -49 20 -50 -21 -44 -36 6 -44 -9
-13 -24 8 -4 57 -27 110 -52 93 -45 153 -95 200 -167 28 -42 33 -14 6 33 -33
56 -85 102 -169 152 -57 33 -68 43 -68 66 0 27 -34 79 -51 79 -5 0 -9 -2 -9
-4z"/>
<path d="M3140 3712 c-19 -9 -36 -25 -38 -35 -4 -18 -2 -18 30 -1 18 10 48 20
67 23 19 3 36 12 39 19 6 18 -57 15 -98 -6z"/>
<path d="M2795 3671 c-50 -31 -103 -93 -130 -154 -30 -65 -46 -200 -27 -233 8
-14 6 -26 -6 -49 -11 -19 -17 -56 -17 -105 -1 -54 -7 -88 -23 -120 -24 -51
-41 -119 -35 -137 9 -25 22 -12 34 29 34 127 127 222 238 244 31 6 32 8 29 52
-3 53 -23 67 -33 23 -5 -23 -15 -33 -43 -42 -20 -7 -54 -23 -74 -36 -21 -12
-40 -23 -43 -23 -3 0 -5 16 -5 36 0 99 131 191 335 236 49 10 98 26 107 35 19
17 23 59 9 82 -11 16 -34 4 -27 -14 10 -26 -21 -43 -107 -58 -92 -16 -197 -59
-255 -104 -18 -14 -36 -22 -40 -18 -13 13 -5 121 12 173 18 54 85 137 130 161
27 15 36 41 14 41 -7 0 -26 -9 -43 -19z"/>
<path d="M2816 3539 c-20 -23 -36 -49 -36 -57 0 -20 11 -13 55 36 26 29 35 46
28 53 -7 7 -22 -3 -47 -32z"/>
<path d="M3070 3090 c0 -5 8 -10 18 -10 9 -1 41 -9 70 -19 61 -21 75 -4 18 23
-38 18 -106 22 -106 6z"/>
<path d="M1650 3891 c-5 -11 -10 -33 -10 -49 0 -28 3 -30 48 -36 114 -17 211
-96 278 -227 33 -66 38 -72 46 -53 28 62 -125 251 -235 292 -32 12 -69 22 -83
22 -24 0 -26 2 -20 35 8 38 -7 48 -24 16z"/>
<path d="M1861 3466 c-16 -19 -24 -71 -17 -108 8 -44 51 -97 66 -82 8 8 6 20
-9 46 -23 39 -28 68 -17 115 8 34 -5 51 -23 29z"/>
<path d="M2034 2696 c-3 -8 0 -24 6 -37 19 -35 91 -109 106 -109 21 0 17 14
-12 41 -14 13 -40 45 -57 72 -34 52 -35 53 -43 33z"/>
<path d="M2230 2606 c0 -7 20 -26 45 -44 47 -33 99 -96 121 -149 16 -37 34
-44 34 -13 0 35 -40 101 -91 151 -50 49 -109 79 -109 55z"/>
<path d="M3123 2553 c-37 -42 -25 -83 24 -83 28 0 45 31 41 73 -4 42 -34 46
-65 10z"/>
<path d="M2853 2356 c-15 -13 -25 -28 -21 -32 11 -10 78 27 78 43 0 20 -26 15
-57 -11z"/>
<path d="M3286 2329 c-14 -11 -26 -30 -26 -42 0 -20 1 -19 28 6 42 41 58 36
54 -17 -3 -37 1 -49 26 -77 25 -27 33 -32 43 -22 10 10 8 18 -14 41 -31 32
-34 58 -11 84 39 43 -49 67 -100 27z"/>
<path d="M2853 2274 c-8 -22 15 -43 27 -24 5 8 10 21 10 28 0 17 -30 15 -37
-4z"/>
<path d="M1247 3473 c-24 -23 34 -103 74 -103 28 0 23 17 -9 34 -16 8 -36 29
-44 46 -8 16 -18 27 -21 23z"/>
<path d="M1047 3314 c-16 -16 -7 -44 14 -44 15 0 20 5 17 22 -3 22 -19 33 -31
22z"/>
<path d="M1410 3265 c0 -31 -37 -37 -106 -15 -36 11 -85 20 -108 20 -186 0
-324 -201 -233 -339 27 -41 52 -59 64 -47 3 3 -7 25 -23 48 -60 89 -29 205 72
264 63 37 125 42 212 15 86 -26 103 -26 132 -3 18 14 22 25 16 45 -7 28 -26
37 -26 12z"/>
<path d="M1185 3128 c-41 -15 -95 -56 -95 -74 0 -16 16 -19 25 -4 4 6 25 20
48 32 86 44 202 21 217 -43 8 -33 40 -38 40 -6 0 33 -36 76 -76 93 -39 16
-116 17 -159 2z"/>
<path d="M3477 3038 c4 -24 7 -69 7 -100 -2 -62 10 -75 27 -30 12 30 5 123
-12 153 -18 35 -31 22 -22 -23z"/>
<path d="M3958 2910 c-28 -29 -34 -60 -13 -67 6 -2 15 10 21 26 8 19 23 33 48
42 44 16 47 29 5 29 -21 0 -40 -10 -61 -30z"/>
<path d="M4121 2571 c-12 -21 -5 -32 15 -24 16 6 19 43 4 43 -5 0 -14 -8 -19
-19z"/>
<path d="M4124 2085 c4 -16 -2 -44 -15 -75 -24 -56 -18 -78 11 -40 42 54 50
140 14 140 -12 0 -15 -6 -10 -25z"/>
<path d="M3160 1983 c0 -98 23 -141 34 -65 7 47 -5 114 -22 120 -9 3 -12 -12
-12 -55z"/>
<path d="M3810 2034 c0 -3 5 -14 11 -26 16 -30 3 -64 -31 -78 -26 -11 -37 -10
-70 3 -33 13 -40 13 -40 1 0 -18 52 -44 90 -44 63 0 109 76 80 131 -10 17 -40
27 -40 13z"/>
<path d="M3486 1977 c6 -39 3 -46 -17 -61 -40 -27 -84 -21 -130 21 -32 29 -42
34 -49 23 -6 -10 -4 -21 6 -31 13 -14 13 -21 3 -37 -18 -28 1 -66 43 -92 33
-20 78 -27 78 -12 0 4 -20 18 -45 31 -38 20 -65 54 -53 66 2 2 24 -3 49 -12
43 -16 49 -16 92 1 56 21 78 66 55 112 -22 47 -39 42 -32 -9z"/>
<path d="M990 2682 c0 -20 30 -34 56 -28 15 4 23 11 18 16 -14 13 -74 23 -74
12z"/>
<path d="M1614 2649 c-34 -10 -70 -44 -56 -53 5 -3 26 4 48 14 21 11 48 20 60
20 29 0 54 10 54 21 0 11 -65 10 -106 -2z"/>
<path d="M1176 2432 c-9 -14 24 -52 45 -52 24 0 24 12 2 32 -28 23 -41 29 -47
20z"/>
<path d="M1704 2379 c-45 -10 -80 -41 -69 -59 5 -8 12 -7 24 4 22 20 111 39
167 34 28 -2 44 1 44 8 0 24 -87 30 -166 13z"/>
<path d="M1638 2266 c-91 -32 -188 -86 -276 -153 -71 -54 -162 -146 -162 -164
0 -17 17 -9 51 27 130 137 395 284 512 284 44 0 28 25 -19 28 -22 1 -68 -8
-106 -22z"/>
<path d="M1862 2270 c2 -8 42 -23 89 -35 46 -12 106 -31 133 -43 56 -25 86
-15 42 13 -70 46 -275 96 -264 65z"/>
<path d="M1610 2195 c-16 -19 -5 -47 17 -43 11 2 18 12 18 27 0 29 -17 37 -35
16z"/>
<path d="M2297 1993 c-3 -5 -1 -27 4 -49 10 -34 8 -195 -2 -234 -2 -8 3 -15
11 -15 34 0 50 125 29 223 -11 54 -32 91 -42 75z"/>
<path d="M1855 1930 c-60 -62 -121 -76 -252 -61 -113 13 -175 4 -212 -30 -20
-19 -30 -45 -13 -37 72 38 88 40 177 32 144 -12 206 -10 249 11 49 23 116 86
116 108 0 28 -24 19 -65 -23z"/>
<path d="M1941 1847 c-32 -16 -67 -75 -53 -89 7 -7 16 0 28 21 43 73 134 50
134 -34 0 -87 -147 -223 -268 -250 l-33 -7 7 64 c5 54 3 66 -14 88 -24 30 -36
23 -23 -14 6 -14 8 -41 4 -58 -21 -111 -114 -164 -177 -102 -62 63 1 176 66
117 15 -14 18 -14 18 -1 0 21 -33 48 -59 48 -33 0 -59 -17 -76 -50 -59 -113
79 -229 187 -157 19 13 57 26 85 30 67 8 163 57 226 115 51 48 97 128 97 170
0 40 -27 90 -59 106 -36 19 -58 20 -90 3z"/>
<path d="M2929 1983 c-12 -33 -4 -118 17 -184 15 -48 71 -121 106 -140 34 -18
32 -2 -6 37 -58 60 -80 116 -84 222 -4 94 -14 113 -33 65z"/>
<path d="M3600 1674 c0 -3 12 -20 26 -37 19 -23 24 -37 19 -56 -19 -78 -117
-111 -228 -77 -38 11 -47 12 -47 1 0 -16 54 -42 106 -51 95 -15 204 55 204
131 0 27 -7 44 -29 66 -27 27 -51 38 -51 23z"/>
<path d="M3412 1574 c15 -15 31 -25 35 -20 12 12 -12 41 -38 44 l-24 4 27 -28z"/>
<path d="M1123 4002 c-83 -81 -190 -203 -238 -272 -47 -68 -23 -53 37 24 32
39 112 126 178 193 67 67 117 124 112 127 -6 3 -46 -29 -89 -72z"/>
<path d="M3864 3965 c-4 -9 16 -38 54 -77 88 -91 155 -176 148 -186 -6 -10 18
-35 26 -27 15 15 208 -329 268 -479 168 -421 178 -872 28 -1321 -142 -427
-396 -758 -773 -1007 -337 -223 -788 -339 -1198 -308 -239 18 -414 60 -625
151 -63 27 -119 46 -125 42 -6 -3 -7 -1 -3 5 4 7 -17 23 -55 42 -33 17 -58 27
-54 21 3 -7 0 -8 -9 -5 -9 3 -13 11 -9 17 3 6 1 7 -6 3 -13 -8 -135 63 -226
132 -33 25 -54 38 -46 28 30 -36 226 -167 329 -219 212 -108 398 -171 632
-214 136 -24 474 -24 625 1 529 87 977 335 1270 701 97 122 157 217 226 360
198 409 251 895 144 1333 -62 257 -207 551 -383 779 -78 99 -209 243 -223 243
-5 0 -12 -7 -15 -15z m-2254 -3181 c0 -2 -9 0 -20 6 -11 6 -20 13 -20 16 0 2
9 0 20 -6 11 -6 20 -13 20 -16z"/>
<path d="M817 3598 c-115 -199 -175 -381 -222 -682 -80 -514 -8 -998 205
-1376 54 -94 149 -233 196 -285 l36 -40 -36 50 c-164 229 -262 409 -319 590
-51 161 -55 211 -8 88 62 -161 127 -300 194 -412 118 -197 323 -430 486 -550
102 -75 140 -95 86 -45 -216 199 -271 255 -345 349 -128 164 -202 282 -295
471 -168 340 -205 470 -205 713 0 318 70 619 210 898 38 77 70 143 70 147 0 3
-6 6 -14 6 -31 0 -85 -97 -165 -295 -47 -116 -51 -113 -15 11 30 106 93 257
140 338 19 32 33 60 31 63 -3 2 -16 -15 -30 -39z"/>
<path d="M2285 1488 c-10 -33 -16 -178 -6 -178 19 0 48 133 36 170 -7 22 -24
27 -30 8z"/>
<path d="M1200 1045 c19 -19 36 -35 39 -35 3 0 -10 16 -29 35 -19 19 -36 35
-39 35 -3 0 10 -16 29 -35z"/>
</g>
</svg>